<svg width="23" height="17" viewBox="0 0 23 17" fill="none" xmlns="http://www.w3.org/2000/svg">
<path fill-rule="evenodd" clip-rule="evenodd" d="M15.698 1.93015L15.6989 2.42812C18.2332 2.57154 19.9073 3.81847 19.91 5.7307L19.92 11.3279C19.9236 13.4128 18.1096 14.6956 15.202 14.6989L8.09972 14.7055C5.21028 14.7082 3.37362 13.3949 3.36998 11.304L3.35999 5.77253C3.35636 3.84769 4.97139 2.60407 7.50566 2.43609L7.50475 1.93812C7.50385 1.64597 7.8036 1.4262 8.20327 1.4262C8.60294 1.42553 8.90269 1.64464 8.9036 1.93679L8.90451 2.40156L14.3001 2.39625L14.2991 1.93148C14.2982 1.63933 14.598 1.42022 14.9977 1.41956C15.3883 1.41889 15.6971 1.638 15.698 1.93015ZM4.75976 5.97765L18.5121 5.96437V5.73198C18.473 4.30445 17.4811 3.5555 15.7007 3.44395L15.7016 3.95521C15.7016 4.24071 15.3937 4.46713 15.0031 4.46713C14.6035 4.46779 14.3028 4.24204 14.3028 3.95653L14.3019 3.41872L8.90634 3.42403L8.90725 3.96118C8.90725 4.24735 8.6084 4.4731 8.20873 4.4731C7.80906 4.47377 7.5084 4.24868 7.5084 3.96251L7.50749 3.45126C5.73623 3.5794 4.75613 4.33101 4.75885 5.77116L4.75976 5.97765ZM14.6208 8.99536V9.00267C14.6299 9.30809 14.975 9.53982 15.3938 9.53318C15.8025 9.52587 16.1286 9.2729 16.1195 8.96748C16.1005 8.67533 15.7725 8.43697 15.3647 8.43763C14.9469 8.44427 14.6199 8.68994 14.6208 8.99536ZM15.371 11.9766C14.9531 11.9699 14.6161 11.7183 14.6152 11.4129C14.6061 11.1075 14.9413 10.8545 15.3592 10.8472H15.3682C15.7952 10.8472 16.1412 11.0988 16.1412 11.4109C16.1421 11.7229 15.797 11.9759 15.371 11.9766ZM10.8783 9.00606C10.8965 9.31149 11.2426 9.54985 11.6604 9.53657C12.0692 9.52263 12.3953 9.27032 12.3771 8.9649C12.3671 8.66611 12.031 8.43372 11.6223 8.43439C11.2044 8.44767 10.8774 8.70064 10.8783 9.00606ZM11.6641 11.9468C11.2463 11.96 10.9011 11.7217 10.882 11.4163C10.882 11.1108 11.2081 10.8585 11.626 10.8446C12.0347 10.8439 12.3717 11.0763 12.3808 11.3744C12.3999 11.6805 12.0729 11.9328 11.6641 11.9468ZM7.136 9.02926C7.15417 9.33468 7.50025 9.57371 7.91808 9.55977C8.32684 9.54649 8.65293 9.29351 8.63386 8.98809C8.62477 8.6893 8.28869 8.45692 7.87902 8.45758C7.46119 8.47086 7.13509 8.72383 7.136 9.02926ZM7.92168 11.95C7.50384 11.9639 7.15867 11.7249 7.13959 11.4195C7.13869 11.1141 7.46569 10.8611 7.88353 10.8478C8.29228 10.8472 8.62927 11.0795 8.63836 11.3783C8.65743 11.6838 8.33134 11.9367 7.92168 11.95Z" fill="#2C3550"/>
</svg>
