<svg width="25" height="24" viewBox="0 0 25 24" fill="none" xmlns="http://www.w3.org/2000/svg">
<path d="M24.5 12C24.5 5.37258 19.1274 0 12.5 0C5.87258 0 0.5 5.37258 0.5 12C0.5 18.6274 5.87258 24 12.5 24C19.1274 24 24.5 18.6274 24.5 12Z" fill="white"/>
<path fill-rule="evenodd" clip-rule="evenodd" d="M21.4998 12.2089C21.4998 11.5571 21.4413 10.9304 21.3326 10.3288H12.6759V13.8842H17.6226C17.4095 15.0332 16.7619 16.0066 15.7885 16.6584V18.9646H18.759C20.497 17.3645 21.4998 15.0081 21.4998 12.2089Z" fill="#4285F4"/>
<path fill-rule="evenodd" clip-rule="evenodd" d="M12.6759 21.1916C15.1576 21.1916 17.2382 20.3685 18.759 18.9647L15.7885 16.6585C14.9654 17.21 13.9126 17.5358 12.6759 17.5358C10.2819 17.5358 8.25562 15.919 7.53283 13.7464H4.46202V16.1279C5.97445 19.1318 9.08285 21.1916 12.6759 21.1916Z" fill="#34A853"/>
<path fill-rule="evenodd" clip-rule="evenodd" d="M7.53283 13.7464C7.349 13.1949 7.24455 12.6058 7.24455 12C7.24455 11.3942 7.349 10.8051 7.53283 10.2536V7.87213H4.46202C3.8395 9.11299 3.48438 10.5168 3.48438 12C3.48438 13.4831 3.8395 14.8869 4.46202 16.1278L7.53283 13.7464Z" fill="#FBBC05"/>
<path fill-rule="evenodd" clip-rule="evenodd" d="M12.6759 6.46422C14.0254 6.46422 15.237 6.92798 16.1896 7.83878L18.8259 5.20248C17.2341 3.7193 15.1534 2.8085 12.6759 2.8085C9.08285 2.8085 5.97445 4.86824 4.46202 7.8722L7.53283 10.2536C8.25562 8.0811 10.2819 6.46422 12.6759 6.46422Z" fill="#EA4335"/>
</svg>
