<svg width="35" height="35" viewBox="0 0 35 35" fill="none" xmlns="http://www.w3.org/2000/svg">
<path d="M17.1235 3.21045C9.45205 3.21045 3.21069 9.4518 3.21069 17.1232C3.21069 24.7947 9.45205 31.036 17.1235 31.036C24.7949 31.036 31.0363 24.7947 31.0363 17.1232C31.0363 9.4518 24.7949 3.21045 17.1235 3.21045ZM19.2639 23.5445H14.983C14.6992 23.5445 14.427 23.4318 14.2263 23.2311C14.0256 23.0304 13.9128 22.7581 13.9128 22.4743C13.9128 22.1905 14.0256 21.9182 14.2263 21.7175C14.427 21.5168 14.6992 21.4041 14.983 21.4041H19.2639C19.5477 21.4041 19.82 21.5168 20.0207 21.7175C20.2214 21.9182 20.3341 22.1905 20.3341 22.4743C20.3341 22.7581 20.2214 23.0304 20.0207 23.2311C19.82 23.4318 19.5477 23.5445 19.2639 23.5445ZM22.4745 19.2637H11.7724C11.4886 19.2637 11.2164 19.1509 11.0157 18.9502C10.8149 18.7495 10.7022 18.4773 10.7022 18.1934C10.7022 17.9096 10.8149 17.6374 11.0157 17.4367C11.2164 17.236 11.4886 17.1232 11.7724 17.1232H22.4745C22.7584 17.1232 23.0306 17.236 23.2313 17.4367C23.432 17.6374 23.5448 17.9096 23.5448 18.1934C23.5448 18.4773 23.432 18.7495 23.2313 18.9502C23.0306 19.1509 22.7584 19.2637 22.4745 19.2637ZM24.615 14.9828H9.63198C9.34814 14.9828 9.07593 14.87 8.87522 14.6693C8.67452 14.4686 8.56176 14.1964 8.56176 13.9126C8.56176 13.6288 8.67452 13.3565 8.87522 13.1558C9.07593 12.9551 9.34814 12.8424 9.63198 12.8424H24.615C24.8988 12.8424 25.171 12.9551 25.3717 13.1558C25.5724 13.3565 25.6852 13.6288 25.6852 13.9126C25.6852 14.1964 25.5724 14.4686 25.3717 14.6693C25.171 14.87 24.8988 14.9828 24.615 14.9828Z" fill="#5669FF"/>
</svg>
