<svg width="23" height="17" viewBox="0 0 23 17" fill="none" xmlns="http://www.w3.org/2000/svg">
<path fill-rule="evenodd" clip-rule="evenodd" d="M11.9876 1.41957C14.0668 1.42621 16.054 2.02408 17.5076 3.07368C18.9704 4.12991 19.7892 5.55816 19.78 7.03955V7.07276C19.7248 9.08559 18.1608 10.939 16.2104 12.3872C15.1064 13.2042 13.8828 13.9283 12.5488 14.5395C12.19 14.7587 11.6656 14.7587 11.3068 14.5395C9.32875 13.6095 7.58075 12.4403 6.16395 11.0785C4.92195 9.89603 4.21355 8.47443 4.13995 6.99304C4.15835 3.90405 7.67275 1.41293 11.9876 1.41957ZM11.9876 8.89958C12.6408 8.89958 13.2664 8.72022 13.7264 8.39471C14.2048 8.05592 14.4725 7.60486 14.4725 7.13254C14.4725 6.14938 13.3584 5.35886 11.9876 5.35886C10.6168 5.35886 9.51276 6.14938 9.51276 7.13254C9.51276 8.10308 10.5984 8.88629 11.96 8.89958H11.9876Z" fill="#200E32"/>
</svg>
