<svg width="150" height="149" viewBox="0 0 150 149" fill="none" xmlns="http://www.w3.org/2000/svg">
<g filter="url(#filter0_d_26_123)">
<rect x="60" y="20.5" width="30" height="28" rx="12" fill="white"/>
<rect x="60.5" y="21" width="29" height="27" rx="11.5" stroke="#EEEEEE"/>
</g>
<path d="M79.9648 34.2255C79.8315 33.1122 79.2966 32.0742 78.4479 31.2821C77.5992 30.4899 76.487 29.9907 75.2942 29.8663V29.2844C75.2942 28.9824 75.0295 28.7354 74.7059 28.7354C74.3824 28.7354 74.1177 28.9824 74.1177 29.2844V29.8663C72.9248 29.9907 71.8127 30.4899 70.964 31.2821C70.1153 32.0742 69.5804 33.1122 69.4471 34.2255H68.8236C68.5001 34.2255 68.2354 34.4726 68.2354 34.7746C68.2354 35.0765 68.5001 35.3236 68.8236 35.3236H69.4471C69.5804 36.4369 70.1153 37.4749 70.964 38.267C71.8127 39.0592 72.9248 39.5584 74.1177 39.6828V40.2648C74.1177 40.5667 74.3824 40.8138 74.7059 40.8138C75.0295 40.8138 75.2942 40.5667 75.2942 40.2648V39.6828C76.487 39.5584 77.5992 39.0592 78.4479 38.267C79.2966 37.4749 79.8315 36.4369 79.9648 35.3236H80.5883C80.9118 35.3236 81.1765 35.0765 81.1765 34.7746C81.1765 34.4726 80.9118 34.2255 80.5883 34.2255H79.9648ZM74.7059 38.6177C72.4295 38.6177 70.5883 36.8993 70.5883 34.7746C70.5883 32.6499 72.4295 30.9314 74.7059 30.9314C76.9824 30.9314 78.8236 32.6499 78.8236 34.7746C78.8236 36.8993 76.9824 38.6177 74.7059 38.6177Z" fill="#808080"/>
<ellipse cx="74.706" cy="34.7746" rx="2.35294" ry="2.19608" fill="#808080"/>
<defs>
<filter id="filter0_d_26_123" x="0" y="0.5" width="150" height="148" filterUnits="userSpaceOnUse" color-interpolation-filters="sRGB">
<feFlood flood-opacity="0" result="BackgroundImageFix"/>
<feColorMatrix in="SourceAlpha" type="matrix" values="0 0 0 0 0 0 0 0 0 0 0 0 0 0 0 0 0 0 127 0" result="hardAlpha"/>
<feOffset dy="40"/>
<feGaussianBlur stdDeviation="30"/>
<feColorMatrix type="matrix" values="0 0 0 0 0.827451 0 0 0 0 0.819608 0 0 0 0 0.847059 0 0 0 0.5 0"/>
<feBlend mode="normal" in2="BackgroundImageFix" result="effect1_dropShadow_26_123"/>
<feBlend mode="normal" in="SourceGraphic" in2="effect1_dropShadow_26_123" result="shape"/>
</filter>
</defs>
</svg>
