<svg width="82" height="87" viewBox="0 0 82 87" fill="none" xmlns="http://www.w3.org/2000/svg">
<g filter="url(#filter0_d_28_227)">
<path fill-rule="evenodd" clip-rule="evenodd" d="M20 5C14.4772 5 10 9.47715 10 15V37C10 42.5228 14.4772 47 20 47H24.9956L29.2329 51.2342C30.209 52.2096 31.791 52.2096 32.7671 51.2342L37.0044 47H42C47.5228 47 52 42.5228 52 37V15C52 9.47715 47.5228 5 42 5H20Z" fill="white"/>
</g>
<rect x="16" y="11" width="30" height="30" rx="8" fill="#39C3F2"/>
<g clip-path="url(#clip0_28_227)">
<path d="M33.3038 28.3177C34.7328 28.2924 35.0473 26.3266 33.6988 25.8584L32.1418 27.547C32.3361 28.0044 32.7942 28.3177 33.3038 28.3177Z" fill="white"/>
<path d="M37.9153 25.7665C37.7151 24.5656 37.1525 23.6386 36.2789 23.0599C35.872 23.5015 34.7509 24.7169 34.3278 25.176C35.0085 25.5449 35.4443 26.2594 35.4443 27.0565C35.4491 28.9039 33.2197 29.885 31.8611 28.6375C31.7316 28.9241 31.5499 29.1879 31.321 29.4168C30.4139 30.4002 27.604 30.638 26.4045 30.603C26.3694 29.4006 26.6082 26.592 27.5908 25.6865C28.0922 25.1854 28.7463 24.9284 29.4048 24.9158C30.1254 24.249 31.1247 23.3243 31.8424 22.6601C30.8455 22.9228 29.3853 23.6183 28.94 22.9617C28.7316 22.4698 29.6791 21.3268 28.9315 20.3676C28.3188 19.5983 26.9476 19.7428 26.1727 20.2893C22.3998 22.8943 21.8953 28.6175 25.189 31.8013C29.2211 35.8644 36.2546 34.0237 37.7998 28.5177C37.8837 28.1711 38.1239 27.0351 37.9153 25.7665Z" fill="white"/>
<path d="M31.321 25.6865C31.566 25.9315 31.7568 26.216 31.8875 26.5258C32.3865 25.9853 35.0214 23.1266 35.4589 22.6525L37.7984 20.1152C38.0539 19.838 38.0607 19.4277 37.8139 19.1807C37.5666 18.9337 37.1557 18.9407 36.8785 19.1971L33.4571 22.3635C32.7142 23.0508 31.2366 24.4188 30.4785 25.1203C30.785 25.2486 31.0719 25.4374 31.321 25.6865Z" fill="white"/>
<path d="M30.2301 25.9722C29.5626 25.6473 28.7538 25.768 28.2125 26.3074C27.6534 26.8017 27.3359 28.683 27.3037 29.7033C28.327 29.67 30.2037 29.3545 30.6993 28.7945C31.0316 28.4622 31.2145 28.0206 31.2145 27.5511C31.2144 27.081 31.0313 26.6394 30.6993 26.3077V26.3074C30.5586 26.1665 30.3998 26.0548 30.2301 25.9722Z" fill="white"/>
</g>
<defs>
<filter id="filter0_d_28_227" x="0" y="0" width="82" height="86.9658" filterUnits="userSpaceOnUse" color-interpolation-filters="sRGB">
<feFlood flood-opacity="0" result="BackgroundImageFix"/>
<feColorMatrix in="SourceAlpha" type="matrix" values="0 0 0 0 0 0 0 0 0 0 0 0 0 0 0 0 0 0 127 0" result="hardAlpha"/>
<feOffset dx="10" dy="15"/>
<feGaussianBlur stdDeviation="10"/>
<feColorMatrix type="matrix" values="0 0 0 0 0.827451 0 0 0 0 0.819608 0 0 0 0 0.847059 0 0 0 0.45 0"/>
<feBlend mode="normal" in2="BackgroundImageFix" result="effect1_dropShadow_28_227"/>
<feBlend mode="normal" in="SourceGraphic" in2="effect1_dropShadow_28_227" result="shape"/>
</filter>
<clipPath id="clip0_28_227">
<rect width="15" height="15" fill="white" transform="translate(23 19)"/>
</clipPath>
</defs>
</svg>
