<svg width="24" height="25" viewBox="0 0 24 25" fill="none" xmlns="http://www.w3.org/2000/svg">
<path fill-rule="evenodd" clip-rule="evenodd" d="M11.0955 18.4608C11.3879 18.4865 11.6894 18.5 12 18.5C16.9091 18.5 21 12.5 21 12.5C21 12.5 20.3304 11.5179 19.2079 10.3484L11.0955 18.4608Z" fill="#979797"/>
<path fill-rule="evenodd" clip-rule="evenodd" d="M14.5051 6.99485C13.7076 6.68695 12.8665 6.5 12 6.5C5.45455 6.5 3 12.5 3 12.5C3 12.5 3.75006 14.3335 5.52661 15.9734L9 12.5C9 10.8431 10.3431 9.5 12 9.5L14.5051 6.99485Z" fill="#979797"/>
<rect opacity="0.3" x="5.09998" y="18.9351" width="19" height="2" transform="rotate(-45 5.09998 18.9351)" fill="#979797"/>
</svg>
