<svg width="22" height="23" viewBox="0 0 22 23" fill="none" xmlns="http://www.w3.org/2000/svg">
<ellipse cx="10.6141" cy="7.17155" rx="4.37986" ry="4.37986" stroke="#807A7A" stroke-width="1.5" stroke-linecap="round" stroke-linejoin="round"/>
<path fill-rule="evenodd" clip-rule="evenodd" d="M3.6667 17.643C3.66553 17.3351 3.73439 17.0309 3.86807 16.7536C4.2876 15.9145 5.47067 15.4698 6.45236 15.2684C7.16036 15.1174 7.87813 15.0164 8.60034 14.9664C9.93746 14.8489 11.2823 14.8489 12.6194 14.9664C13.3416 15.017 14.0593 15.1179 14.7674 15.2684C15.7491 15.4698 16.9321 15.8726 17.3517 16.7536C17.6205 17.319 17.6205 17.9754 17.3517 18.5408C16.9321 19.4218 15.7491 19.8245 14.7674 20.0175C14.0602 20.1748 13.3422 20.2786 12.6194 20.3279C11.5311 20.4202 10.4377 20.437 9.3471 20.3783C9.09538 20.3783 8.85206 20.3783 8.60034 20.3279C7.88027 20.2792 7.16498 20.1754 6.46075 20.0175C5.47067 19.8245 4.29599 19.4218 3.86807 18.5408C3.73507 18.2602 3.66628 17.9535 3.6667 17.643Z" stroke="#807A7A" stroke-width="1.5" stroke-linecap="round" stroke-linejoin="round"/>
</svg>
