<svg width="24" height="25" viewBox="0 0 24 25" fill="none" xmlns="http://www.w3.org/2000/svg">
<path fill-rule="evenodd" clip-rule="evenodd" d="M4.60517 9.39083C5.43627 5.73826 8.5457 3.89353 11.7248 3.89568C14.9041 3.89782 18.0116 5.74699 18.8383 9.3998L18.8383 9.39983C19.822 13.7449 17.13 17.504 14.5881 19.945L14.5868 19.9463C12.9878 21.4895 10.457 21.4914 8.84687 19.9457C6.31409 17.5046 3.62163 13.7362 4.60517 9.39083ZM11.7257 2.5C15.4294 2.50251 19.2026 4.68682 20.1996 9.09168C21.3558 14.1994 18.1682 18.4417 15.5557 20.9508C13.4144 23.0172 10.0283 23.0153 7.87949 20.9517L7.87861 20.9508C5.27544 18.442 2.08774 14.1901 3.24401 9.08238L3.24417 9.08166C4.2462 4.67682 8.02197 2.4975 11.7257 2.5ZM9.51632 10.9298C9.51632 9.71194 10.5036 8.72465 11.7215 8.72465C12.9394 8.72465 13.9267 9.71194 13.9267 10.9298C13.9267 12.1477 12.9394 13.135 11.7215 13.135C10.5036 13.135 9.51632 12.1477 9.51632 10.9298ZM11.7215 7.32898C9.7328 7.32898 8.12065 8.94113 8.12065 10.9298C8.12065 12.9185 9.7328 14.5307 11.7215 14.5307C13.7102 14.5307 15.3223 12.9185 15.3223 10.9298C15.3223 8.94113 13.7102 7.32898 11.7215 7.32898Z" fill="black"/>
</svg>
