<svg width="23" height="17" viewBox="0 0 23 17" fill="none" xmlns="http://www.w3.org/2000/svg">
<path fill-rule="evenodd" clip-rule="evenodd" d="M16.1937 5.00701C16.1937 6.98831 14.0306 8.59447 11.3624 8.59447C8.69424 8.59447 6.53123 6.98831 6.53123 5.00701C6.53123 3.02571 8.69424 1.41956 11.3624 1.41956C14.0306 1.41956 16.1937 3.02571 16.1937 5.00701ZM15.5092 10.6157C17.0453 10.8403 18.0481 11.2067 18.4779 11.7978C18.8007 12.259 18.8007 12.8081 18.4779 13.2694C18.0481 13.8604 17.0851 14.2505 15.4932 14.4514C14.7839 14.5547 14.0659 14.6218 13.3443 14.6524C12.6757 14.7056 12.0071 14.7056 11.3306 14.7056H10.1129C9.85816 14.6819 9.61143 14.6701 9.37265 14.6701C8.65097 14.6433 7.93281 14.5781 7.22368 14.4751C5.68756 14.2623 4.68471 13.884 4.25492 13.293C4.089 13.0641 4.00153 12.8083 4.00022 12.5484C3.99677 12.2868 4.08159 12.0287 4.24696 11.7978C4.66879 11.2067 5.67165 10.8226 7.22368 10.6157C7.93594 10.5148 8.65655 10.4496 9.38061 10.4207C10.7051 10.3436 12.0357 10.3436 13.3602 10.4207C14.0814 10.4511 14.7993 10.5162 15.5092 10.6157Z" fill="#2C3550"></path>
</svg>
