<svg width="23" height="22" viewBox="0 0 23 22" fill="none" xmlns="http://www.w3.org/2000/svg">
<path opacity="0.3" d="M11.52 12.3075C12.0916 12.3075 12.555 11.8639 12.555 11.3166C12.555 10.7693 12.0916 10.3257 11.52 10.3257C10.9484 10.3257 10.485 10.7693 10.485 11.3166C10.485 11.8639 10.9484 12.3075 11.52 12.3075Z" fill="#808080"></path>
<path d="M11.52 2.72876C6.57398 2.72876 2.54999 6.58133 2.54999 11.3166C2.54999 16.0519 6.57398 19.9045 11.52 19.9045C16.466 19.9045 20.49 16.0519 20.49 11.3166C20.49 6.58133 16.466 2.72876 11.52 2.72876ZM16.0511 7.40791L14.0294 12.2469C13.8906 12.5792 13.6827 12.8811 13.4184 13.1342C13.154 13.3872 12.8387 13.5863 12.4916 13.7192L7.43734 15.6548C7.37465 15.6788 7.30597 15.6847 7.23981 15.6717C7.17366 15.6587 7.11294 15.6274 7.06519 15.5817C7.01743 15.5359 6.98475 15.4778 6.97118 15.4145C6.9576 15.3511 6.96375 15.2854 6.98884 15.2254L9.01054 10.3864C9.14936 10.0541 9.35725 9.75222 9.6216 9.49913C9.88596 9.24604 10.2013 9.047 10.5484 8.9141L15.6026 6.97852C15.6653 6.95449 15.734 6.94861 15.8002 6.96161C15.8663 6.9746 15.927 7.00589 15.9748 7.05161C16.0225 7.09733 16.0552 7.15546 16.0688 7.2188C16.0824 7.28213 16.0762 7.34789 16.0511 7.40791V7.40791Z" fill="#808080"></path>
</svg>
