<svg width="23" height="23" viewBox="0 0 23 23" fill="none" xmlns="http://www.w3.org/2000/svg">
<path opacity="0.01" fill-rule="evenodd" clip-rule="evenodd" d="M0 0V23H23V0H0Z" fill="#1C8FF8" fill-opacity="0.338428"></path>
<path fill-rule="evenodd" clip-rule="evenodd" d="M11.2604 14.4186C12.74 14.4186 13.9394 13.2192 13.9394 11.7396C13.9394 10.2601 12.74 9.06067 11.2604 9.06067C9.78087 9.06067 8.58145 10.2601 8.58145 11.7396C8.58145 13.2192 9.78087 14.4186 11.2604 14.4186Z" stroke="#767676" stroke-width="1.5" stroke-linecap="round" stroke-linejoin="round"></path>
<path fill-rule="evenodd" clip-rule="evenodd" d="M17.8686 14.4186C17.6254 14.9696 17.7421 15.6132 18.1632 16.0438L18.2168 16.0974C18.5522 16.4324 18.7406 16.887 18.7406 17.361C18.7406 17.835 18.5522 18.2896 18.2168 18.6246C17.8818 18.9599 17.4273 19.1484 16.9532 19.1484C16.4792 19.1484 16.0247 18.9599 15.6897 18.6246L15.6361 18.571C15.2055 18.1498 14.5619 18.0331 14.0108 18.2763C13.471 18.5077 13.1202 19.0375 13.1178 19.6247V19.7765C13.1178 20.7629 12.3182 21.5625 11.3319 21.5625C10.3455 21.5625 9.54587 20.7629 9.54587 19.7765V19.6962C9.53172 19.0913 9.14927 18.5566 8.58144 18.3477C8.03038 18.1045 7.38678 18.2212 6.95619 18.6424L6.90261 18.696C6.56762 19.0314 6.11305 19.2198 5.63903 19.2198C5.16501 19.2198 4.71044 19.0314 4.37544 18.696C4.04008 18.361 3.85164 17.9064 3.85164 17.4324C3.85164 16.9584 4.04008 16.5038 4.37544 16.1688L4.42902 16.1153C4.85022 15.6847 4.96692 15.0411 4.72371 14.49C4.49237 13.9502 3.96256 13.5994 3.37529 13.597H3.22348C2.23711 13.597 1.4375 12.7974 1.4375 11.811C1.4375 10.8247 2.23711 10.0251 3.22348 10.0251H3.30385C3.9087 10.0109 4.44343 9.62846 4.65227 9.06063C4.89548 8.50957 4.77878 7.86597 4.35759 7.43538L4.30401 7.3818C3.96864 7.04681 3.7802 6.59223 3.7802 6.11822C3.7802 5.6442 3.96864 5.18963 4.30401 4.85463C4.639 4.51927 5.09357 4.33083 5.56759 4.33083C6.04161 4.33083 6.49618 4.51927 6.83117 4.85463L6.88475 4.90821C7.31534 5.32941 7.95894 5.4461 8.51 5.2029H8.58144C9.12123 4.97155 9.47209 4.44175 9.47443 3.85448V3.70267C9.47443 2.7163 10.274 1.91669 11.2604 1.91669C12.2468 1.91669 13.0464 2.7163 13.0464 3.70267V3.78304C13.0487 4.37031 13.3996 4.90011 13.9394 5.13146C14.4905 5.37466 15.1341 5.25797 15.5646 4.83677L15.6182 4.78319C15.9532 4.44783 16.4078 4.25939 16.8818 4.25939C17.3558 4.25939 17.8104 4.44783 18.1454 4.78319C18.4808 5.11819 18.6692 5.57276 18.6692 6.04678C18.6692 6.52079 18.4808 6.97537 18.1454 7.31036L18.0918 7.36394C17.6706 7.79453 17.5539 8.43813 17.7971 8.98919V9.06063C18.0285 9.60041 18.5583 9.95128 19.1455 9.95362H19.2973C20.2837 9.95362 21.0833 10.7532 21.0833 11.7396C21.0833 12.726 20.2837 13.5256 19.2973 13.5256H19.217C18.6297 13.5279 18.0999 13.8788 17.8686 14.4186Z" stroke="#767676" stroke-width="1.5" stroke-linecap="round" stroke-linejoin="round"></path>
</svg>
