<svg width="17" height="20" viewBox="0 0 17 20" fill="none" xmlns="http://www.w3.org/2000/svg">
<path d="M4.70352 18.872L5.04207 16.7216L4.28794 16.7041H0.68689L3.18943 0.836324C3.1972 0.788422 3.22245 0.743757 3.25935 0.712038C3.29624 0.680319 3.3435 0.662842 3.39269 0.662842H9.46457C11.4803 0.662842 12.8714 1.08231 13.5977 1.91023C13.9382 2.29862 14.1551 2.70449 14.2599 3.15115C14.37 3.61981 14.3719 4.17974 14.2645 4.86266L14.2567 4.91251V5.3501L14.5972 5.543C14.8839 5.69512 15.1118 5.86925 15.2866 6.06862C15.5779 6.4007 15.7662 6.82275 15.8459 7.32313C15.9281 7.83775 15.9009 8.45012 15.7662 9.1434C15.6109 9.9409 15.3597 10.6355 15.0205 11.2038C14.7085 11.7275 14.3111 12.1619 13.8392 12.4985C13.3886 12.8182 12.8533 13.061 12.248 13.2163C11.6616 13.3691 10.9929 13.4461 10.2595 13.4461H9.78693C9.44903 13.4461 9.12084 13.5678 8.86321 13.786C8.60493 14.0087 8.43403 14.3129 8.3816 14.6456L8.346 14.8392L7.74787 18.6292L7.72069 18.7684C7.71356 18.8124 7.70127 18.8344 7.68314 18.8493C7.66696 18.8629 7.64365 18.872 7.621 18.872H4.70352Z" fill="#253B80"></path>
<path d="M14.9196 4.96301C14.9015 5.07888 14.8808 5.19734 14.8575 5.31904C14.0567 9.43018 11.3173 10.8504 7.81849 10.8504H6.03706C5.60918 10.8504 5.24862 11.1611 5.18195 11.5832L4.26987 17.3676L4.01159 19.0073C3.96822 19.2844 4.18184 19.5342 4.46148 19.5342H7.62106C7.99521 19.5342 8.31304 19.2623 8.37195 18.8934L8.40302 18.7328L8.99791 14.9577L9.0361 14.7505C9.09436 14.3802 9.41284 14.1084 9.78699 14.1084H10.2595C13.3207 14.1084 15.7171 12.8655 16.4175 9.26899C16.7101 7.76656 16.5586 6.51205 15.7844 5.62975C15.5501 5.3637 15.2594 5.14297 14.9196 4.96301Z" fill="#179BD7"></path>
<path d="M14.0818 4.62896C13.9594 4.59336 13.8332 4.56099 13.7038 4.53187C13.5736 4.50338 13.4403 4.47814 13.3031 4.45613C12.8227 4.37845 12.2965 4.34155 11.7327 4.34155H6.97355C6.85638 4.34155 6.74504 4.36809 6.64536 4.41599C6.42591 4.52151 6.26279 4.7293 6.2233 4.9837L5.21089 11.3961L5.18176 11.5831C5.24844 11.1611 5.60899 10.8504 6.03687 10.8504H7.8183C11.3171 10.8504 14.0565 9.4295 14.8573 5.31901C14.8812 5.19731 14.9013 5.07885 14.9194 4.96298C14.7168 4.85553 14.4974 4.76361 14.2611 4.68528C14.2028 4.66586 14.1426 4.64709 14.0818 4.62896Z" fill="#222D65"></path>
<path d="M6.22334 4.98373C6.26283 4.72933 6.42595 4.52154 6.64539 4.41667C6.74573 4.36877 6.85642 4.34223 6.97359 4.34223H11.7327C12.2965 4.34223 12.8228 4.37913 13.3031 4.45681C13.4403 4.47882 13.5737 4.50406 13.7038 4.53254C13.8333 4.56167 13.9595 4.59404 14.0818 4.62964C14.1427 4.64777 14.2029 4.66654 14.2618 4.68531C14.4981 4.76364 14.7175 4.8562 14.9201 4.96301C15.1583 3.44375 14.9182 2.40933 14.0967 1.47266C13.1911 0.441473 11.5566 0 9.46513 0H3.39325C2.96602 0 2.60158 0.310714 2.53555 0.733415L0.00646598 16.7643C-0.0433778 17.0815 0.20131 17.3676 0.521087 17.3676H4.26973L5.21093 11.3961L6.22334 4.98373Z" fill="#253B80"></path>
</svg>
