<svg width="30" height="20" viewBox="0 0 30 20" fill="none" xmlns="http://www.w3.org/2000/svg">
<path d="M19.0563 2.13745H10.9442V17.8614H19.0563V2.13745Z" fill="#FF5F00"></path>
<path d="M11.4592 10C11.4579 8.48566 11.7761 6.99087 12.3896 5.62876C13.003 4.26666 13.8958 3.07294 15.0002 2.138C13.6325 0.978457 11.99 0.257354 10.2604 0.0571119C8.53071 -0.14313 6.78373 0.185569 5.21909 1.00564C3.65445 1.82571 2.33527 3.10406 1.41235 4.69459C0.489432 6.28511 0 8.12362 0 10C0 11.8764 0.489432 13.7149 1.41235 15.3054C2.33527 16.8959 3.65445 18.1743 5.21909 18.9944C6.78373 19.8144 8.53071 20.1431 10.2604 19.9429C11.99 19.7426 13.6325 19.0215 15.0002 17.862C13.8958 16.9271 13.003 15.7333 12.3896 14.3712C11.7761 13.0091 11.4579 11.5143 11.4592 10Z" fill="#EB001B"></path>
<path d="M30.0001 9.99999C30.0001 11.8763 29.5108 13.7149 28.5879 15.3054C27.665 16.8959 26.3459 18.1743 24.7813 18.9943C23.2167 19.8144 21.4697 20.1431 19.7401 19.9429C18.0105 19.7426 16.368 19.0215 15.0004 17.862C16.1038 16.9261 16.9958 15.7322 17.6092 14.3703C18.2226 13.0084 18.5413 11.5141 18.5413 9.99999C18.5413 8.4859 18.2226 6.99158 17.6092 5.62968C16.9958 4.26779 16.1038 3.07389 15.0004 2.138C16.368 0.978454 18.0105 0.25735 19.7401 0.0571102C21.4697 -0.14313 23.2167 0.185576 24.7813 1.00566C26.3459 1.82573 27.665 3.10409 28.5879 4.69462C29.5108 6.28514 30.0001 8.12365 30.0001 9.99999Z" fill="#F79E1B"></path>
<path d="M29.1157 16.1962V15.8743H29.236V15.8087H28.9296V15.8743H29.05V16.1962H29.1157ZM29.7107 16.1962V15.8081H29.6168L29.5087 16.0751L29.4006 15.8081H29.3066V16.1962H29.373V15.9035L29.4743 16.1559H29.5431L29.6444 15.9028V16.1962H29.7107Z" fill="#F79E1B"></path>
</svg>
